<svg xmlns="http://www.w3.org/2000/svg" viewBox="0 -0.5 176 88" shape-rendering="crispEdges">
<metadata>Made with Pixels to Svg https://codepen.io/shshaw/pen/XbxvNj</metadata>
<path stroke="#fdcbc4" d="M1 0h174M0 1h1M0 2h1M0 3h1M3 3h2M171 3h2M0 4h1M3 4h2M171 4h2M0 5h1M0 6h1M0 7h1M0 8h1M12 8h8M25 8h6M33 8h6M41 8h11M60 8h11M73 8h11M0 9h1M11 9h10M25 9h6M33 9h6M41 9h12M59 9h12M73 9h12M0 10h1M11 10h10M25 10h6M33 10h6M41 10h12M59 10h12M73 10h12M0 11h1M10 11h12M25 11h6M33 11h6M41 11h13M58 11h13M73 11h13M0 12h1M10 12h12M25 12h6M33 12h6M41 12h13M58 12h13M73 12h13M0 13h1M9 13h14M25 13h6M33 13h6M41 13h14M57 13h14M73 13h14M0 14h1M9 14h14M25 14h6M33 14h6M41 14h14M57 14h14M73 14h14M0 15h1M9 15h14M25 15h6M33 15h6M41 15h14M57 15h14M73 15h14M0 16h1M9 16h7M25 16h6M33 16h6M41 16h6M48 16h7M57 16h6M73 16h6M80 16h7M0 17h1M9 17h8M25 17h6M33 17h6M41 17h6M48 17h7M57 17h6M64 17h6M73 17h6M80 17h7M0 18h1M10 18h9M25 18h6M33 18h6M41 18h6M48 18h7M57 18h6M64 18h6M73 18h6M80 18h7M0 19h1M10 19h11M25 19h6M33 19h6M41 19h6M48 19h6M57 19h6M64 19h6M73 19h6M80 19h6M0 20h1M11 20h11M25 20h6M33 20h6M41 20h6M48 20h6M57 20h6M64 20h6M73 20h6M80 20h5M0 21h1M13 21h9M25 21h6M33 21h6M41 21h6M48 21h5M57 21h6M64 21h6M73 21h6M80 21h6M0 22h1M15 22h8M25 22h6M33 22h6M41 22h6M48 22h5M57 22h6M64 22h6M73 22h6M80 22h7M0 23h1M17 23h6M25 23h6M33 23h6M41 23h6M48 23h4M57 23h6M73 23h6M80 23h7M0 24h1M9 24h14M25 24h14M41 24h6M57 24h14M73 24h6M81 24h6M0 25h1M9 25h14M25 25h14M41 25h6M57 25h14M73 25h6M81 25h6M0 26h1M9 26h14M25 26h14M41 26h6M57 26h14M73 26h6M81 26h6M0 27h1M10 27h12M26 27h12M41 27h6M58 27h13M73 27h6M81 27h6M0 28h1M10 28h12M26 28h12M41 28h6M58 28h13M73 28h6M81 28h6M0 29h1M11 29h10M27 29h10M41 29h6M59 29h12M73 29h6M81 29h6M0 30h1M11 30h10M27 30h10M41 30h6M59 30h12M73 30h6M81 30h6M0 31h1M12 31h8M28 31h8M41 31h6M60 31h11M73 31h6M81 31h6M0 32h1M0 33h1M0 34h1M0 35h1M0 36h1M0 37h1M0 38h1M0 39h1M0 40h1M12 40h5M23 40h5M36 40h8M49 40h11M65 40h6M76 40h8M97 40h11M113 40h11M132 40h8M148 40h8M0 41h1M11 41h7M22 41h7M35 41h10M49 41h12M65 41h6M75 41h10M97 41h12M113 41h12M131 41h10M147 41h10M0 42h1M11 42h7M22 42h7M35 42h10M49 42h12M65 42h6M75 42h10M97 42h12M113 42h12M131 42h10M147 42h10M0 43h1M10 43h9M21 43h9M34 43h12M49 43h13M65 43h6M74 43h12M97 43h13M113 43h13M130 43h12M146 43h12M0 44h1M10 44h9M21 44h9M34 44h12M49 44h13M65 44h6M74 44h12M97 44h13M113 44h13M130 44h12M146 44h12M0 45h1M9 45h22M33 45h14M49 45h14M65 45h6M73 45h14M97 45h14M113 45h14M129 45h14M145 45h14M0 46h1M9 46h22M33 46h14M49 46h14M65 46h6M73 46h14M97 46h14M113 46h14M129 46h14M145 46h14M0 47h1M9 47h22M33 47h14M49 47h14M65 47h6M73 47h14M97 47h14M113 47h14M129 47h14M145 47h14M0 48h1M9 48h6M17 48h6M25 48h6M33 48h6M41 48h6M49 48h6M57 48h6M65 48h6M73 48h6M81 48h6M97 48h6M105 48h6M113 48h6M121 48h6M129 48h6M137 48h6M145 48h6M153 48h6M0 49h1M9 49h6M17 49h6M25 49h6M33 49h6M41 49h6M49 49h6M57 49h6M65 49h6M73 49h6M81 49h6M97 49h6M105 49h6M113 49h6M121 49h6M129 49h6M137 49h6M145 49h6M153 49h6M0 50h1M9 50h6M17 50h6M25 50h6M33 50h6M41 50h6M49 50h6M57 50h6M65 50h6M73 50h6M81 50h6M97 50h6M105 50h6M113 50h6M121 50h6M129 50h6M137 50h6M145 50h6M153 50h6M0 51h1M9 51h6M17 51h6M25 51h6M33 51h6M41 51h6M49 51h6M57 51h6M65 51h6M73 51h6M81 51h6M97 51h6M105 51h6M113 51h6M121 51h6M129 51h6M137 51h6M145 51h6M153 51h6M0 52h1M9 52h6M17 52h6M25 52h6M33 52h6M41 52h6M49 52h6M57 52h6M65 52h6M73 52h6M81 52h6M97 52h6M105 52h6M113 52h6M121 52h6M129 52h6M137 52h6M145 52h6M153 52h6M0 53h1M9 53h6M17 53h6M25 53h6M33 53h6M41 53h6M49 53h6M57 53h6M65 53h6M73 53h6M81 53h6M97 53h6M105 53h6M113 53h6M121 53h6M129 53h6M137 53h6M145 53h6M153 53h6M0 54h1M9 54h6M17 54h6M25 54h6M33 54h6M41 54h6M49 54h6M57 54h6M65 54h6M73 54h6M81 54h6M97 54h6M105 54h6M113 54h6M121 54h6M129 54h6M137 54h6M145 54h6M153 54h6M0 55h1M9 55h6M17 55h6M25 55h6M33 55h6M41 55h6M49 55h6M57 55h6M65 55h6M73 55h6M81 55h6M97 55h6M105 55h6M113 55h6M121 55h6M129 55h6M137 55h6M145 55h6M153 55h6M0 56h1M9 56h6M17 56h6M25 56h6M33 56h6M41 56h6M49 56h6M56 56h7M65 56h6M73 56h6M81 56h6M97 56h6M104 56h7M113 56h6M120 56h7M129 56h6M137 56h6M145 56h7M0 57h1M9 57h6M17 57h6M25 57h6M33 57h6M41 57h6M49 57h6M56 57h7M65 57h6M73 57h6M81 57h6M97 57h6M104 57h7M113 57h6M120 57h7M129 57h6M137 57h6M145 57h8M0 58h1M9 58h6M17 58h6M25 58h6M33 58h6M41 58h6M49 58h6M56 58h7M65 58h6M73 58h6M81 58h6M97 58h6M104 58h7M113 58h6M120 58h7M129 58h6M137 58h6M146 58h9M0 59h1M9 59h6M17 59h6M25 59h6M33 59h6M41 59h6M49 59h6M56 59h6M65 59h6M73 59h6M81 59h6M97 59h6M104 59h6M113 59h6M120 59h6M129 59h6M137 59h6M146 59h11M0 60h1M9 60h6M17 60h6M25 60h6M33 60h6M41 60h6M49 60h6M56 60h5M65 60h6M73 60h6M81 60h6M97 60h6M104 60h5M113 60h6M120 60h5M129 60h6M137 60h6M147 60h11M0 61h1M9 61h6M17 61h6M25 61h6M33 61h6M41 61h6M49 61h6M56 61h6M65 61h6M73 61h6M81 61h6M97 61h6M104 61h6M113 61h6M120 61h6M129 61h6M137 61h6M149 61h9M0 62h1M9 62h6M17 62h6M25 62h6M33 62h6M41 62h6M49 62h6M56 62h7M65 62h6M73 62h6M81 62h6M97 62h6M104 62h7M113 62h6M120 62h7M129 62h6M137 62h6M151 62h8M0 63h1M9 63h6M17 63h6M25 63h6M33 63h6M41 63h6M49 63h6M56 63h7M65 63h6M73 63h6M81 63h6M97 63h6M104 63h7M113 63h6M120 63h7M129 63h6M137 63h6M153 63h6M0 64h1M9 64h6M17 64h6M25 64h6M33 64h14M49 64h6M57 64h6M65 64h6M73 64h6M81 64h6M97 64h6M105 64h6M113 64h6M121 64h6M129 64h6M137 64h6M145 64h6M153 64h6M0 65h1M9 65h6M17 65h6M25 65h6M33 65h14M49 65h6M57 65h6M65 65h6M73 65h6M81 65h6M97 65h6M105 65h6M113 65h6M121 65h6M129 65h6M137 65h6M145 65h6M153 65h6M0 66h1M9 66h6M17 66h6M25 66h6M33 66h14M49 66h6M57 66h6M65 66h6M73 66h6M81 66h6M97 66h6M105 66h6M113 66h6M121 66h6M129 66h6M137 66h6M145 66h6M153 66h6M0 67h1M9 67h6M17 67h6M25 67h6M33 67h14M49 67h6M57 67h6M65 67h6M73 67h6M81 67h6M97 67h6M105 67h6M113 67h6M121 67h6M129 67h6M137 67h6M145 67h6M153 67h6M0 68h1M9 68h6M17 68h6M25 68h6M33 68h14M49 68h6M57 68h6M65 68h6M73 68h6M81 68h6M97 68h6M105 68h6M113 68h6M121 68h6M129 68h6M137 68h6M145 68h6M153 68h6M0 69h1M9 69h6M17 69h6M25 69h6M33 69h14M49 69h6M57 69h6M65 69h6M73 69h6M81 69h6M97 69h6M105 69h6M113 69h6M121 69h6M129 69h6M137 69h6M145 69h6M153 69h6M0 70h1M9 70h6M17 70h6M25 70h6M33 70h14M49 70h6M57 70h6M65 70h6M73 70h6M81 70h6M97 70h6M105 70h6M113 70h6M121 70h6M129 70h6M137 70h6M145 70h6M153 70h6M0 71h1M9 71h6M17 71h6M25 71h6M33 71h14M49 71h6M57 71h6M65 71h6M73 71h6M81 71h6M97 71h6M105 71h6M113 71h6M121 71h6M129 71h6M137 71h6M145 71h6M153 71h6M0 72h1M9 72h6M17 72h6M25 72h6M33 72h6M41 72h6M49 72h6M57 72h6M65 72h6M73 72h14M97 72h6M104 72h7M113 72h6M121 72h6M129 72h14M145 72h14M161 72h6M0 73h1M9 73h6M17 73h6M25 73h6M33 73h6M41 73h6M49 73h6M57 73h6M65 73h6M73 73h14M97 73h6M104 73h7M113 73h6M121 73h6M129 73h14M145 73h14M161 73h6M0 74h1M9 74h6M17 74h6M25 74h6M33 74h6M41 74h6M49 74h6M57 74h6M65 74h6M73 74h14M97 74h6M104 74h7M113 74h6M121 74h6M129 74h14M145 74h14M161 74h6M0 75h1M9 75h6M17 75h6M25 75h6M33 75h6M41 75h6M49 75h6M57 75h6M65 75h6M74 75h12M97 75h6M104 75h6M113 75h6M121 75h6M130 75h12M146 75h12M161 75h6M0 76h1M9 76h6M17 76h6M25 76h6M33 76h6M41 76h6M49 76h6M57 76h6M65 76h6M74 76h12M97 76h6M104 76h6M113 76h6M121 76h6M130 76h12M146 76h12M161 76h6M0 77h1M9 77h6M17 77h6M25 77h6M33 77h6M41 77h6M49 77h6M57 77h6M65 77h6M75 77h10M97 77h6M104 77h5M113 77h6M121 77h6M131 77h10M147 77h10M161 77h6M0 78h1M9 78h6M17 78h6M25 78h6M33 78h6M41 78h6M49 78h6M57 78h6M65 78h6M75 78h10M97 78h6M104 78h5M113 78h6M121 78h6M131 78h10M147 78h10M161 78h6M0 79h1M9 79h6M17 79h6M25 79h6M33 79h6M41 79h6M49 79h6M57 79h6M65 79h6M76 79h8M97 79h6M104 79h4M113 79h6M121 79h6M132 79h8M148 79h8M161 79h6M0 80h1M0 81h1M0 82h1M0 83h1M3 83h2M171 83h2M0 84h1M3 84h2M171 84h2M0 85h1M0 86h1" />
<path stroke="#984d04" d="M1 1h174M1 2h174M1 3h2M5 3h166M173 3h2M1 4h2M6 4h165M174 4h1M1 5h3M6 5h166M174 5h1M1 6h174M1 7h174M1 8h11M20 8h5M31 8h2M39 8h2M52 8h8M71 8h2M84 8h91M1 9h10M21 9h4M31 9h2M39 9h2M53 9h6M71 9h2M85 9h90M1 10h10M21 10h4M31 10h2M39 10h2M53 10h6M71 10h2M85 10h90M1 11h9M22 11h3M31 11h2M39 11h2M54 11h4M71 11h2M86 11h89M1 12h9M22 12h3M32 12h1M40 12h1M54 12h4M72 12h1M86 12h89M1 13h8M23 13h2M32 13h1M40 13h1M55 13h2M72 13h1M87 13h88M1 14h8M23 14h2M32 14h1M40 14h1M55 14h2M72 14h1M87 14h88M1 15h8M23 15h2M32 15h1M40 15h1M55 15h2M72 15h1M87 15h88M1 16h8M23 16h2M32 16h1M40 16h1M56 16h1M72 16h1M88 16h87M1 17h8M24 17h1M32 17h1M40 17h1M56 17h1M72 17h1M88 17h87M1 18h9M24 18h1M32 18h1M40 18h1M56 18h1M72 18h1M88 18h87M1 19h9M24 19h1M32 19h1M40 19h1M56 19h1M72 19h1M88 19h87M1 20h9M22 20h3M32 20h1M40 20h1M56 20h1M70 20h3M88 20h87M1 21h9M22 21h3M32 21h1M40 21h1M56 21h1M71 21h2M88 21h87M1 22h10M23 22h2M32 22h1M40 22h1M56 22h1M71 22h2M88 22h87M1 23h10M23 23h2M32 23h1M40 23h1M55 23h2M64 23h1M71 23h2M87 23h88M1 24h8M23 24h2M40 24h1M48 24h1M55 24h2M71 24h2M80 24h1M87 24h88M1 25h8M23 25h2M40 25h1M48 25h1M54 25h3M71 25h2M80 25h1M87 25h88M1 26h8M24 26h1M40 26h1M48 26h1M54 26h3M71 26h2M80 26h1M88 26h87M1 27h9M24 27h2M40 27h1M48 27h1M53 27h5M71 27h2M80 27h1M88 27h87M1 28h9M24 28h2M40 28h1M48 28h10M72 28h1M80 28h1M88 28h87M1 29h9M24 29h2M40 29h1M48 29h10M72 29h1M80 29h1M88 29h87M1 30h9M24 30h2M40 30h1M48 30h10M72 30h1M80 30h1M88 30h87M1 31h10M23 31h4M39 31h2M48 31h11M72 31h1M80 31h1M88 31h87M1 32h10M23 32h4M39 32h3M48 32h11M72 32h2M80 32h2M88 32h87M1 33h11M22 33h6M38 33h4M48 33h12M72 33h2M80 33h2M88 33h87M1 34h11M22 34h6M38 34h4M48 34h12M72 34h2M80 34h2M88 34h87M1 35h12M21 35h8M37 35h5M48 35h13M72 35h2M80 35h2M88 35h87M1 36h174M1 37h174M1 38h174M1 39h174M1 40h11M17 40h6M28 40h8M44 40h5M60 40h5M71 40h5M84 40h13M108 40h5M124 40h8M140 40h8M156 40h19M1 41h10M18 41h4M29 41h6M45 41h4M61 41h4M71 41h4M85 41h12M109 41h4M125 41h6M141 41h6M157 41h18M1 42h10M18 42h4M29 42h6M45 42h4M61 42h4M71 42h4M85 42h12M109 42h4M125 42h6M141 42h6M157 42h18M1 43h9M19 43h2M30 43h4M46 43h3M62 43h3M71 43h3M86 43h11M110 43h3M126 43h4M142 43h4M158 43h17M1 44h9M19 44h2M30 44h4M46 44h3M62 44h3M72 44h2M86 44h11M110 44h3M126 44h4M142 44h4M158 44h17M1 45h8M31 45h2M47 45h2M63 45h2M72 45h1M87 45h10M111 45h2M127 45h2M143 45h2M159 45h16M1 46h8M31 46h2M47 46h2M63 46h2M72 46h1M87 46h10M111 46h2M127 46h2M143 46h2M159 46h16M1 47h8M31 47h2M47 47h2M63 47h2M72 47h1M87 47h10M111 47h2M127 47h2M143 47h2M159 47h16M1 48h8M32 48h1M48 48h1M64 48h1M72 48h1M88 48h9M112 48h1M128 48h1M144 48h1M160 48h15M1 49h8M32 49h1M48 49h1M64 49h1M72 49h1M88 49h9M112 49h1M128 49h1M144 49h1M160 49h15M1 50h8M32 50h1M48 50h1M64 50h1M72 50h1M88 50h9M112 50h1M128 50h1M144 50h1M160 50h15M1 51h8M32 51h1M48 51h1M64 51h1M72 51h1M88 51h9M112 51h1M128 51h1M144 51h1M160 51h15M1 52h8M16 52h1M24 52h1M32 52h1M40 52h1M48 52h1M56 52h1M64 52h1M72 52h1M80 52h1M88 52h9M104 52h1M112 52h1M120 52h1M128 52h1M136 52h1M144 52h1M152 52h1M160 52h15M1 53h8M16 53h1M24 53h1M32 53h1M40 53h1M48 53h1M56 53h1M64 53h1M72 53h1M80 53h1M88 53h9M104 53h1M112 53h1M120 53h1M128 53h1M136 53h1M144 53h1M152 53h1M160 53h15M1 54h8M16 54h1M24 54h1M32 54h1M40 54h1M48 54h1M56 54h1M64 54h1M72 54h1M80 54h1M88 54h9M104 54h1M112 54h1M120 54h1M128 54h1M136 54h1M144 54h1M152 54h1M160 54h15M1 55h8M16 55h1M24 55h1M32 55h1M40 55h1M48 55h1M56 55h1M64 55h1M72 55h1M80 55h1M88 55h9M104 55h1M112 55h1M120 55h1M128 55h1M136 55h1M144 55h1M152 55h1M160 55h15M1 56h8M16 56h1M24 56h1M32 56h1M40 56h1M48 56h1M64 56h1M72 56h1M80 56h1M88 56h9M112 56h1M128 56h1M136 56h1M144 56h1M152 56h2M160 56h15M1 57h8M16 57h1M24 57h1M32 57h1M40 57h1M48 57h1M64 57h1M72 57h1M80 57h1M88 57h9M112 57h1M128 57h1M136 57h1M144 57h1M153 57h1M160 57h15M1 58h8M16 58h1M24 58h1M32 58h1M40 58h1M48 58h1M64 58h1M72 58h1M80 58h1M88 58h9M112 58h1M128 58h1M136 58h1M144 58h2M160 58h15M1 59h8M16 59h1M24 59h1M32 59h1M40 59h1M48 59h1M64 59h1M72 59h1M80 59h1M88 59h9M112 59h1M128 59h1M136 59h1M144 59h2M160 59h15M1 60h8M16 60h1M24 60h1M32 60h1M40 60h1M48 60h1M64 60h1M72 60h1M80 60h1M88 60h9M112 60h1M128 60h1M136 60h1M144 60h2M158 60h17M1 61h8M16 61h1M24 61h1M32 61h1M40 61h1M48 61h1M64 61h1M72 61h1M80 61h1M88 61h9M112 61h1M128 61h1M136 61h1M144 61h2M158 61h17M1 62h8M16 62h1M24 62h1M32 62h1M40 62h1M48 62h1M64 62h1M72 62h1M80 62h1M88 62h9M112 62h1M128 62h1M136 62h1M144 62h3M159 62h16M1 63h8M16 63h1M24 63h1M32 63h1M40 63h1M48 63h1M63 63h2M72 63h1M80 63h1M88 63h9M111 63h2M127 63h2M136 63h1M144 63h3M159 63h16M1 64h8M16 64h1M24 64h1M32 64h1M48 64h1M56 64h1M63 64h2M72 64h1M80 64h1M88 64h9M111 64h2M120 64h1M127 64h2M136 64h1M144 64h1M159 64h16M1 65h8M16 65h1M24 65h1M32 65h1M48 65h1M56 65h1M63 65h2M72 65h1M80 65h1M88 65h9M111 65h2M120 65h1M127 65h2M136 65h1M144 65h1M159 65h16M1 66h8M16 66h1M24 66h1M32 66h1M48 66h1M56 66h1M64 66h1M72 66h1M80 66h1M88 66h9M112 66h1M120 66h1M128 66h1M136 66h1M144 66h1M151 66h1M160 66h15M1 67h8M16 67h1M24 67h1M32 67h1M48 67h1M56 67h1M64 67h1M72 67h1M80 67h1M88 67h9M112 67h1M120 67h1M128 67h1M136 67h1M144 67h1M151 67h1M160 67h15M1 68h8M16 68h1M24 68h1M32 68h1M48 68h1M56 68h1M64 68h1M72 68h1M80 68h1M88 68h9M104 68h1M112 68h1M120 68h1M128 68h1M136 68h1M144 68h1M152 68h1M160 68h15M1 69h8M16 69h1M24 69h1M32 69h1M48 69h1M56 69h1M64 69h1M72 69h1M80 69h1M88 69h9M104 69h1M112 69h1M120 69h1M128 69h1M136 69h1M144 69h1M152 69h1M160 69h15M1 70h8M16 70h1M24 70h1M32 70h1M48 70h1M56 70h1M64 70h1M72 70h1M80 70h1M88 70h9M104 70h1M112 70h1M120 70h1M128 70h1M136 70h1M144 70h1M152 70h1M160 70h15M1 71h8M16 71h1M24 71h1M32 71h1M48 71h1M56 71h1M64 71h1M72 71h1M80 71h1M88 71h9M104 71h1M112 71h1M120 71h1M128 71h1M136 71h1M144 71h1M152 71h1M160 71h15M1 72h8M16 72h1M24 72h1M32 72h1M48 72h1M56 72h1M64 72h1M72 72h1M88 72h9M112 72h1M120 72h1M128 72h1M144 72h1M160 72h1M167 72h8M1 73h8M16 73h1M24 73h1M32 73h1M48 73h1M56 73h1M64 73h1M72 73h1M88 73h9M112 73h1M120 73h1M128 73h1M144 73h1M160 73h1M167 73h8M1 74h8M16 74h1M24 74h1M32 74h1M48 74h1M56 74h1M64 74h1M72 74h1M88 74h9M112 74h1M120 74h1M128 74h1M144 74h1M160 74h1M167 74h8M1 75h8M16 75h1M24 75h1M32 75h1M48 75h1M56 75h1M64 75h1M72 75h2M88 75h9M112 75h1M120 75h1M128 75h2M144 75h2M160 75h1M167 75h8M1 76h8M16 76h1M24 76h1M32 76h1M40 76h1M48 76h1M56 76h1M64 76h1M72 76h2M88 76h9M112 76h1M120 76h1M128 76h2M144 76h2M160 76h1M168 76h7M1 77h8M16 77h1M24 77h1M32 77h1M40 77h1M48 77h1M56 77h1M64 77h1M72 77h2M88 77h9M112 77h1M120 77h1M128 77h2M144 77h2M160 77h1M168 77h7M1 78h8M16 78h1M24 78h1M32 78h1M40 78h1M48 78h1M56 78h1M64 78h1M72 78h2M88 78h9M112 78h1M120 78h1M128 78h2M144 78h2M160 78h1M168 78h7M1 79h8M16 79h1M24 79h1M32 79h1M40 79h1M48 79h1M56 79h1M64 79h1M72 79h3M87 79h10M111 79h2M120 79h1M128 79h3M143 79h4M159 79h2M168 79h7M1 80h9M16 80h2M24 80h2M32 80h2M40 80h2M48 80h2M56 80h2M64 80h2M72 80h3M87 80h11M104 80h1M111 80h3M120 80h2M128 80h3M143 80h4M159 80h3M168 80h7M1 81h9M16 81h2M24 81h2M32 81h2M40 81h2M48 81h2M56 81h2M64 81h2M72 81h4M86 81h12M104 81h1M110 81h4M120 81h2M128 81h4M142 81h6M158 81h4M168 81h7M1 82h9M16 82h2M24 82h2M32 82h2M40 82h2M48 82h2M56 82h2M64 82h2M72 82h4M86 82h12M104 82h1M110 82h4M120 82h2M128 82h4M142 82h6M158 82h4M168 82h7M1 83h2M5 83h5M16 83h2M24 83h2M32 83h2M40 83h2M48 83h2M56 83h2M64 83h2M72 83h5M85 83h13M104 83h1M109 83h5M120 83h2M128 83h5M141 83h8M157 83h5M168 83h3M173 83h2M1 84h2M6 84h165M174 84h1M1 85h3M6 85h166M174 85h1M1 86h174" />
<path stroke="#000000" d="M175 1h1M175 2h1M175 3h1M5 4h1M173 4h1M175 4h1M4 5h2M172 5h2M175 5h1M175 6h1M175 7h1M175 8h1M175 9h1M175 10h1M175 11h1M31 12h1M39 12h1M71 12h1M175 12h1M31 13h1M39 13h1M71 13h1M175 13h1M31 14h1M39 14h1M71 14h1M175 14h1M31 15h1M39 15h1M71 15h1M175 15h1M16 16h7M31 16h1M39 16h1M47 16h1M55 16h1M63 16h9M79 16h1M87 16h1M175 16h1M17 17h7M31 17h1M39 17h1M47 17h1M55 17h1M63 17h1M70 17h2M79 17h1M87 17h1M175 17h1M19 18h5M31 18h1M39 18h1M47 18h1M55 18h1M63 18h1M70 18h2M79 18h1M87 18h1M175 18h1M21 19h3M31 19h1M39 19h1M47 19h1M54 19h2M63 19h1M70 19h2M79 19h1M86 19h2M175 19h1M10 20h1M31 20h1M39 20h1M47 20h1M54 20h2M63 20h1M79 20h1M85 20h3M175 20h1M10 21h3M31 21h1M39 21h1M47 21h1M53 21h3M63 21h1M70 21h1M79 21h1M86 21h2M175 21h1M11 22h4M31 22h1M39 22h1M47 22h1M53 22h3M63 22h1M70 22h1M79 22h1M87 22h1M175 22h1M11 23h6M31 23h1M39 23h1M47 23h1M52 23h3M63 23h1M65 23h6M79 23h1M175 23h1M39 24h1M47 24h1M49 24h6M79 24h1M175 24h1M39 25h1M47 25h1M49 25h5M79 25h1M175 25h1M23 26h1M39 26h1M47 26h1M49 26h5M79 26h1M87 26h1M175 26h1M22 27h2M38 27h2M47 27h1M49 27h4M79 27h1M87 27h1M175 27h1M22 28h2M38 28h2M47 28h1M71 28h1M79 28h1M87 28h1M175 28h1M10 29h1M21 29h3M26 29h1M37 29h3M47 29h1M58 29h1M71 29h1M79 29h1M87 29h1M175 29h1M10 30h1M21 30h3M26 30h1M37 30h3M47 30h1M58 30h1M71 30h1M79 30h1M87 30h1M175 30h1M11 31h1M20 31h3M27 31h1M36 31h3M47 31h1M59 31h1M71 31h1M79 31h1M87 31h1M175 31h1M11 32h12M27 32h12M42 32h6M59 32h13M74 32h6M82 32h6M175 32h1M12 33h10M28 33h10M42 33h6M60 33h12M74 33h6M82 33h6M175 33h1M12 34h10M28 34h10M42 34h6M60 34h12M74 34h6M82 34h6M175 34h1M13 35h8M29 35h8M42 35h6M61 35h11M74 35h6M82 35h6M175 35h1M175 36h1M175 37h1M175 38h1M175 39h1M175 40h1M175 41h1M175 42h1M175 43h1M71 44h1M175 44h1M71 45h1M175 45h1M71 46h1M175 46h1M71 47h1M175 47h1M15 48h2M23 48h2M31 48h1M39 48h2M47 48h1M55 48h2M63 48h1M71 48h1M79 48h2M87 48h1M103 48h2M111 48h1M119 48h2M127 48h1M135 48h2M143 48h1M151 48h2M159 48h1M175 48h1M15 49h2M23 49h2M31 49h1M39 49h2M47 49h1M55 49h2M63 49h1M71 49h1M79 49h2M87 49h1M103 49h2M111 49h1M119 49h2M127 49h1M135 49h2M143 49h1M151 49h2M159 49h1M175 49h1M15 50h2M23 50h2M31 50h1M39 50h2M47 50h1M55 50h2M63 50h1M71 50h1M79 50h2M87 50h1M103 50h2M111 50h1M119 50h2M127 50h1M135 50h2M143 50h1M151 50h2M159 50h1M175 50h1M15 51h2M23 51h2M31 51h1M39 51h2M47 51h1M55 51h2M63 51h1M71 51h1M79 51h2M87 51h1M103 51h2M111 51h1M119 51h2M127 51h1M135 51h2M143 51h1M151 51h2M159 51h1M175 51h1M15 52h1M23 52h1M31 52h1M39 52h1M47 52h1M55 52h1M63 52h1M71 52h1M79 52h1M87 52h1M103 52h1M111 52h1M119 52h1M127 52h1M135 52h1M143 52h1M151 52h1M159 52h1M175 52h1M15 53h1M23 53h1M31 53h1M39 53h1M47 53h1M55 53h1M63 53h1M71 53h1M79 53h1M87 53h1M103 53h1M111 53h1M119 53h1M127 53h1M135 53h1M143 53h1M151 53h1M159 53h1M175 53h1M15 54h1M23 54h1M31 54h1M39 54h1M47 54h1M55 54h1M63 54h1M71 54h1M79 54h1M87 54h1M103 54h1M111 54h1M119 54h1M127 54h1M135 54h1M143 54h1M151 54h1M159 54h1M175 54h1M15 55h1M23 55h1M31 55h1M39 55h1M47 55h1M55 55h1M63 55h1M71 55h1M79 55h1M87 55h1M103 55h1M111 55h1M119 55h1M127 55h1M135 55h1M143 55h1M151 55h1M159 55h1M175 55h1M15 56h1M23 56h1M31 56h1M39 56h1M47 56h1M55 56h1M63 56h1M71 56h1M79 56h1M87 56h1M103 56h1M111 56h1M119 56h1M127 56h1M135 56h1M143 56h1M154 56h6M175 56h1M15 57h1M23 57h1M31 57h1M39 57h1M47 57h1M55 57h1M63 57h1M71 57h1M79 57h1M87 57h1M103 57h1M111 57h1M119 57h1M127 57h1M135 57h1M143 57h1M154 57h6M175 57h1M15 58h1M23 58h1M31 58h1M39 58h1M47 58h1M55 58h1M63 58h1M71 58h1M79 58h1M87 58h1M103 58h1M111 58h1M119 58h1M127 58h1M135 58h1M143 58h1M155 58h5M175 58h1M15 59h1M23 59h1M31 59h1M39 59h1M47 59h1M55 59h1M62 59h2M71 59h1M79 59h1M87 59h1M103 59h1M110 59h2M119 59h1M126 59h2M135 59h1M143 59h1M157 59h3M175 59h1M15 60h1M23 60h1M31 60h1M39 60h1M47 60h1M55 60h1M61 60h3M71 60h1M79 60h1M87 60h1M103 60h1M109 60h3M119 60h1M125 60h3M135 60h1M143 60h1M146 60h1M175 60h1M15 61h1M23 61h1M31 61h1M39 61h1M47 61h1M55 61h1M62 61h2M71 61h1M79 61h1M87 61h1M103 61h1M110 61h2M119 61h1M126 61h2M135 61h1M143 61h1M146 61h3M175 61h1M15 62h1M23 62h1M31 62h1M39 62h1M47 62h1M55 62h1M63 62h1M71 62h1M79 62h1M87 62h1M103 62h1M111 62h1M119 62h1M127 62h1M135 62h1M143 62h1M147 62h4M175 62h1M15 63h1M23 63h1M31 63h1M39 63h1M47 63h1M55 63h1M71 63h1M79 63h1M87 63h1M103 63h1M119 63h1M135 63h1M143 63h1M147 63h6M175 63h1M15 64h1M23 64h1M31 64h1M47 64h1M55 64h1M71 64h1M79 64h1M87 64h1M103 64h2M119 64h1M135 64h1M143 64h1M151 64h2M175 64h1M15 65h1M23 65h1M31 65h1M47 65h1M55 65h1M71 65h1M79 65h1M87 65h1M103 65h2M119 65h1M135 65h1M143 65h1M151 65h2M175 65h1M15 66h1M23 66h1M31 66h1M47 66h1M55 66h1M63 66h1M71 66h1M79 66h1M87 66h1M103 66h2M111 66h1M119 66h1M127 66h1M135 66h1M143 66h1M152 66h1M159 66h1M175 66h1M15 67h1M23 67h1M31 67h1M47 67h1M55 67h1M63 67h1M71 67h1M79 67h1M87 67h1M103 67h2M111 67h1M119 67h1M127 67h1M135 67h1M143 67h1M152 67h1M159 67h1M175 67h1M15 68h1M23 68h1M31 68h1M47 68h1M55 68h1M63 68h1M71 68h1M79 68h1M87 68h1M103 68h1M111 68h1M119 68h1M127 68h1M135 68h1M143 68h1M151 68h1M159 68h1M175 68h1M15 69h1M23 69h1M31 69h1M47 69h1M55 69h1M63 69h1M71 69h1M79 69h1M87 69h1M103 69h1M111 69h1M119 69h1M127 69h1M135 69h1M143 69h1M151 69h1M159 69h1M175 69h1M15 70h1M23 70h1M31 70h1M47 70h1M55 70h1M63 70h1M71 70h1M79 70h1M87 70h1M103 70h1M111 70h1M119 70h1M127 70h1M135 70h1M143 70h1M151 70h1M159 70h1M175 70h1M15 71h1M23 71h1M31 71h1M47 71h1M55 71h1M63 71h1M71 71h1M79 71h1M87 71h1M103 71h1M111 71h1M119 71h1M127 71h1M135 71h1M143 71h1M151 71h1M159 71h1M175 71h1M15 72h1M23 72h1M31 72h1M39 72h2M47 72h1M55 72h1M63 72h1M71 72h1M87 72h1M103 72h1M111 72h1M119 72h1M127 72h1M143 72h1M159 72h1M175 72h1M15 73h1M23 73h1M31 73h1M39 73h2M47 73h1M55 73h1M63 73h1M71 73h1M87 73h1M103 73h1M111 73h1M119 73h1M127 73h1M143 73h1M159 73h1M175 73h1M15 74h1M23 74h1M31 74h1M39 74h2M47 74h1M55 74h1M63 74h1M71 74h1M87 74h1M103 74h1M111 74h1M119 74h1M127 74h1M143 74h1M159 74h1M175 74h1M15 75h1M23 75h1M31 75h1M39 75h2M47 75h1M55 75h1M63 75h1M71 75h1M86 75h2M103 75h1M110 75h2M119 75h1M127 75h1M142 75h2M158 75h2M175 75h1M15 76h1M23 76h1M31 76h1M39 76h1M47 76h1M55 76h1M63 76h1M71 76h1M86 76h2M103 76h1M110 76h2M119 76h1M127 76h1M142 76h2M158 76h2M167 76h1M175 76h1M15 77h1M23 77h1M31 77h1M39 77h1M47 77h1M55 77h1M63 77h1M71 77h1M74 77h1M85 77h3M103 77h1M109 77h3M119 77h1M127 77h1M130 77h1M141 77h3M146 77h1M157 77h3M167 77h1M175 77h1M15 78h1M23 78h1M31 78h1M39 78h1M47 78h1M55 78h1M63 78h1M71 78h1M74 78h1M85 78h3M103 78h1M109 78h3M119 78h1M127 78h1M130 78h1M141 78h3M146 78h1M157 78h3M167 78h1M175 78h1M15 79h1M23 79h1M31 79h1M39 79h1M47 79h1M55 79h1M63 79h1M71 79h1M75 79h1M84 79h3M103 79h1M108 79h3M119 79h1M127 79h1M131 79h1M140 79h3M147 79h1M156 79h3M167 79h1M175 79h1M10 80h6M18 80h6M26 80h6M34 80h6M42 80h6M50 80h6M58 80h6M66 80h6M75 80h12M98 80h6M105 80h6M114 80h6M122 80h6M131 80h12M147 80h12M162 80h6M175 80h1M10 81h6M18 81h6M26 81h6M34 81h6M42 81h6M50 81h6M58 81h6M66 81h6M76 81h10M98 81h6M105 81h5M114 81h6M122 81h6M132 81h10M148 81h10M162 81h6M175 81h1M10 82h6M18 82h6M26 82h6M34 82h6M42 82h6M50 82h6M58 82h6M66 82h6M76 82h10M98 82h6M105 82h5M114 82h6M122 82h6M132 82h10M148 82h10M162 82h6M175 82h1M10 83h6M18 83h6M26 83h6M34 83h6M42 83h6M50 83h6M58 83h6M66 83h6M77 83h8M98 83h6M105 83h4M114 83h6M122 83h6M133 83h8M149 83h8M162 83h6M175 83h1M5 84h1M173 84h1M175 84h1M4 85h2M172 85h2M175 85h1M175 86h1M1 87h174" />
</svg>